<svg xmlns="http://www.w3.org/2000/svg" id="mainsvg" width="453.3503161430359" height="490.87500000000006" viewBox="-10 -10 412.13665103912354 446.25"><defs><marker id="arrow" viewBox="0 0 10 10" refX="10" refY="5" markerWidth="5" markerHeight="5" orient="auto-start-reverse" fill="black"><path d="M 0 0 L 10 5 L 0 10 z"/></marker><filter id="shadowOLD" x="-50%" y="-50%" width="250%" height="250%"><feDropShadow flood-color="black" flood-opacity="0.3" dx="1" dy="1" stdDeviation="2"> </feDropShadow></filter><filter id="shadow-path" filterUnits="userSpaceOnUse" x="-10" y="-10" width="412.13665103912354px" height="446.25px"><feDropShadow flood-color="black" flood-opacity="0.1" dx="1" dy="1" stdDeviation="1"> </feDropShadow></filter><filter id="shadow" filterUnits="userSpaceOnUse" x="-10" y="-10" width="512.1366510391235px" height="546.25px"><feDropShadow flood-color="black" flood-opacity="0.1" dx="1" dy="1" stdDeviation="1"> </feDropShadow></filter></defs><rect x="-10" y="-10" width="412.13665103912354" height="446.25" fill="#fff"/><g transform="translate(0, 0)"><rect width="49.66332817077637" height="34.75" stroke="black" fill="white" stroke-width="2" transform="translate(0, 0)" rx="3"/><text fill="black" font-size="16" font-weight="normal" transform="translate(8, 8)" alignment-baseline="middle" font-family="Arial"><tspan x="0" dy="16" font-family="Arial" font-size="16" font-weight="normal">user</tspan></text></g><g transform="translate(179.93666172027588, 0)"><rect width="55.88999557495117" height="34.75" stroke="black" fill="white" stroke-width="2" transform="translate(0, 0)" rx="3"/><text fill="black" font-size="16" font-weight="normal" transform="translate(8, 8)" alignment-baseline="middle" font-family="Arial"><tspan x="0" dy="16" font-family="Arial" font-size="16" font-weight="normal">client</tspan></text></g><g transform="translate(329.13998889923096, 0)"><rect width="62.99666213989258" height="34.75" stroke="black" fill="white" stroke-width="2" transform="translate(0, 0)" rx="3"/><text fill="black" font-size="16" font-weight="normal" transform="translate(8, 8)" alignment-baseline="middle" font-family="Arial"><tspan x="0" dy="16" font-family="Arial" font-size="16" font-weight="normal">server</tspan></text></g><path d="M 24.831664085388184,75.5 L 207.88165950775146 75.5" fill="none" stroke="black" stroke-dasharray="none" stroke-width="2" marker-end="url(#arrow)"/><path d="M 207.88165950775146,112.25 L 360.63831996917725 112.25" fill="none" stroke="black" stroke-dasharray="none" stroke-width="2" marker-end="url(#arrow)"/><path d="M 360.63831996917725,149 L 207.88165950775146 149" fill="none" stroke="black" stroke-dasharray="4,4" stroke-width="2" marker-end="url(#arrow)"/><path d="M 207.88165950775146,157 L 221.88165950775146 157 L 221.88165950775146 181.75 L 207.88165950775146 181.75" fill="none" stroke="black" stroke-dasharray="none" stroke-width="2" marker-end="url(#arrow)"/><path d="M 207.88165950775146,222.5 L 24.831664085388184 222.5" fill="none" stroke="black" stroke-dasharray="4,4" stroke-width="2" marker-end="url(#arrow)"/><path d="M 24.831664085388184,259.25 L 207.88165950775146 259.25" fill="none" stroke="black" stroke-dasharray="none" stroke-width="2" marker-end="url(#arrow)"/><path d="M 207.88165950775146,296 L 360.63831996917725 296" fill="none" stroke="black" stroke-dasharray="none" stroke-width="2" marker-end="url(#arrow)"/><path d="M 360.63831996917725,332.75 L 207.88165950775146 332.75" fill="none" stroke="black" stroke-dasharray="4,4" stroke-width="2" marker-end="url(#arrow)"/><path d="M 207.88165950775146,340.75 L 221.88165950775146 340.75 L 221.88165950775146 365.5 L 207.88165950775146 365.5" fill="none" stroke="black" stroke-dasharray="none" stroke-width="2" marker-end="url(#arrow)"/><path d="M 207.88165950775146,406.25 L 24.831664085388184 406.25" fill="none" stroke="black" stroke-dasharray="4,4" stroke-width="2" marker-end="url(#arrow)"/><path d="M 24.831664085388184,34.75 L 24.831664085388184 426.25" fill="none" stroke="black" stroke-dasharray="none" stroke-width="2"/><path d="M 207.88165950775146,34.75 L 207.88165950775146 426.25" fill="none" stroke="black" stroke-dasharray="none" stroke-width="2"/><path d="M 360.63831996917725,34.75 L 360.63831996917725 426.25" fill="none" stroke="black" stroke-dasharray="none" stroke-width="2"/><g transform="translate(71.01833248138428, 46.75)"><rect width="90.6766586303711" height="24.75" stroke="none" fill="white" stroke-width="0" transform="translate(0, 0)" rx="2"/><text fill="black" font-size="14" font-weight="normal" transform="translate(4, 4)" alignment-baseline="middle" font-family="Arial"><tspan x="0" dy="14" font-family="Arial" font-size="14" font-weight="normal">mistype URL</tspan></text></g><g transform="translate(260.70832538604736, 83.5)"><rect width="47.103328704833984" height="24.75" stroke="none" fill="white" stroke-width="0" transform="translate(0, 0)" rx="2"/><text fill="black" font-size="14" font-weight="normal" transform="translate(4, 4)" alignment-baseline="middle" font-family="Arial"><tspan x="0" dy="14" font-family="Arial" font-size="14" font-weight="normal">GET /</tspan></text></g><g transform="translate(231.88165950775146, 120.25)"><rect width="104.75666046142578" height="24.75" stroke="none" fill="white" stroke-width="0" transform="translate(0, 0)" rx="2"/><text fill="black" font-size="14" font-weight="normal" transform="translate(4, 4)" alignment-baseline="middle" font-family="Arial"><tspan x="0" dy="14" font-family="Arial" font-size="14" font-weight="normal">404 - not found</tspan></text></g><g transform="translate(227.88165950775146, 157)"><rect width="126.52999114990234" height="24.75" stroke="none" fill="white" stroke-width="0" transform="translate(0, 0)" rx="2"/><text fill="black" font-size="14" font-weight="normal" transform="translate(4, 4)" alignment-baseline="middle" font-family="Arial"><tspan x="0" dy="14" font-family="Arial" font-size="14" font-weight="normal">renders error page</tspan></text></g><g transform="translate(51.544997215270996, 193.75)"><rect width="129.62332916259766" height="24.75" stroke="none" fill="white" stroke-width="0" transform="translate(0, 0)" rx="2"/><text fill="black" font-size="14" font-weight="normal" transform="translate(4, 4)" alignment-baseline="middle" font-family="Arial"><tspan x="0" dy="14" font-family="Arial" font-size="14" font-weight="normal">displays error page</tspan></text></g><g transform="translate(48.831664085388184, 230.5)"><rect width="135.04999542236328" height="24.75" stroke="none" fill="white" stroke-width="0" transform="translate(0, 0)" rx="2"/><text fill="black" font-size="14" font-weight="normal" transform="translate(4, 4)" alignment-baseline="middle" font-family="Arial"><tspan x="0" dy="14" font-family="Arial" font-size="14" font-weight="normal">retypes correct URL</tspan></text></g><g transform="translate(260.70832538604736, 267.25)"><rect width="47.103328704833984" height="24.75" stroke="none" fill="white" stroke-width="0" transform="translate(0, 0)" rx="2"/><text fill="black" font-size="14" font-weight="normal" transform="translate(4, 4)" alignment-baseline="middle" font-family="Arial"><tspan x="0" dy="14" font-family="Arial" font-size="14" font-weight="normal">GET /</tspan></text></g><g transform="translate(238.51499462127686, 304)"><rect width="91.489990234375" height="24.75" stroke="none" fill="white" stroke-width="0" transform="translate(0, 0)" rx="2"/><text fill="black" font-size="14" font-weight="normal" transform="translate(4, 4)" alignment-baseline="middle" font-family="Arial"><tspan x="0" dy="14" font-family="Arial" font-size="14" font-weight="normal">200 ok - html</tspan></text></g><g transform="translate(227.88165950775146, 340.75)"><rect width="118.74332427978516" height="24.75" stroke="none" fill="white" stroke-width="0" transform="translate(0, 0)" rx="2"/><text fill="black" font-size="14" font-weight="normal" transform="translate(4, 4)" alignment-baseline="middle" font-family="Arial"><tspan x="0" dy="14" font-family="Arial" font-size="14" font-weight="normal">renders webpage</tspan></text></g><g transform="translate(55.43833065032959, 377.5)"><rect width="121.83666229248047" height="24.75" stroke="none" fill="white" stroke-width="0" transform="translate(0, 0)" rx="2"/><text fill="black" font-size="14" font-weight="normal" transform="translate(4, 4)" alignment-baseline="middle" font-family="Arial"><tspan x="0" dy="14" font-family="Arial" font-size="14" font-weight="normal">displays webpage</tspan></text></g></svg>