<svg xmlns="http://www.w3.org/2000/svg" id="mainsvg" width="476.4356463432312" height="773.85" viewBox="-10 -10 433.1233148574829 703.5"><defs><marker id="arrow" viewBox="0 0 10 10" refX="10" refY="5" markerWidth="5" markerHeight="5" orient="auto-start-reverse" fill="black"><path d="M 0 0 L 10 5 L 0 10 z"/></marker><filter id="shadowOLD" x="-50%" y="-50%" width="250%" height="250%"><feDropShadow flood-color="black" flood-opacity="0.3" dx="1" dy="1" stdDeviation="2"> </feDropShadow></filter><filter id="shadow-path" filterUnits="userSpaceOnUse" x="-10" y="-10" width="433.1233148574829px" height="703.5px"><feDropShadow flood-color="black" flood-opacity="0.1" dx="1" dy="1" stdDeviation="1"> </feDropShadow></filter><filter id="shadow" filterUnits="userSpaceOnUse" x="-10" y="-10" width="533.1233148574829px" height="803.5px"><feDropShadow flood-color="black" flood-opacity="0.1" dx="1" dy="1" stdDeviation="1"> </feDropShadow></filter></defs><rect x="-10" y="-10" width="433.1233148574829" height="703.5" fill="#fff"/><g transform="translate(0, 0)"><rect width="49.66332817077637" height="34.75" stroke="black" fill="white" stroke-width="2" transform="translate(0, 0)" rx="3"/><text fill="black" font-size="16" font-weight="normal" transform="translate(8, 8)" alignment-baseline="middle" font-family="Arial"><tspan x="0" dy="16" font-family="Arial" font-size="16" font-weight="normal">user</tspan></text></g><g transform="translate(179.93666172027588, 0)"><rect width="55.88999557495117" height="34.75" stroke="black" fill="white" stroke-width="2" transform="translate(0, 0)" rx="3"/><text fill="black" font-size="16" font-weight="normal" transform="translate(8, 8)" alignment-baseline="middle" font-family="Arial"><tspan x="0" dy="16" font-family="Arial" font-size="16" font-weight="normal">client</tspan></text></g><g transform="translate(350.12665271759033, 0)"><rect width="62.99666213989258" height="34.75" stroke="black" fill="white" stroke-width="2" transform="translate(0, 0)" rx="3"/><text fill="black" font-size="16" font-weight="normal" transform="translate(8, 8)" alignment-baseline="middle" font-family="Arial"><tspan x="0" dy="16" font-family="Arial" font-size="16" font-weight="normal">server</tspan></text></g><path d="M 24.831664085388184,75.5 L 207.88165950775146 75.5" fill="none" stroke="black" stroke-dasharray="none" stroke-width="2" marker-end="url(#arrow)"/><path d="M 207.88165950775146,112.25 L 381.6249837875366 112.25" fill="none" stroke="black" stroke-dasharray="none" stroke-width="2" marker-end="url(#arrow)"/><path d="M 381.6249837875366,149 L 207.88165950775146 149" fill="none" stroke="black" stroke-dasharray="4,4" stroke-width="2" marker-end="url(#arrow)"/><path d="M 207.88165950775146,157 L 221.88165950775146 157 L 221.88165950775146 181.75 L 207.88165950775146 181.75" fill="none" stroke="black" stroke-dasharray="none" stroke-width="2" marker-end="url(#arrow)"/><path d="M 207.88165950775146,222.5 L 24.831664085388184 222.5" fill="none" stroke="black" stroke-dasharray="4,4" stroke-width="2" marker-end="url(#arrow)"/><path d="M 24.831664085388184,259.25 L 207.88165950775146 259.25" fill="none" stroke="black" stroke-dasharray="none" stroke-width="2" marker-end="url(#arrow)"/><path d="M 207.88165950775146,296 L 381.6249837875366 296" fill="none" stroke="black" stroke-dasharray="none" stroke-width="2" marker-end="url(#arrow)"/><path d="M 381.6249837875366,332.75 L 207.88165950775146 332.75" fill="none" stroke="black" stroke-dasharray="4,4" stroke-width="2" marker-end="url(#arrow)"/><path d="M 207.88165950775146,340.75 L 221.88165950775146 340.75 L 221.88165950775146 365.5 L 207.88165950775146 365.5" fill="none" stroke="black" stroke-dasharray="none" stroke-width="2" marker-end="url(#arrow)"/><path d="M 207.88165950775146,406.25 L 24.831664085388184 406.25" fill="none" stroke="black" stroke-dasharray="4,4" stroke-width="2" marker-end="url(#arrow)"/><path d="M 24.831664085388184,443 L 207.88165950775146 443" fill="none" stroke="black" stroke-dasharray="none" stroke-width="2" marker-end="url(#arrow)"/><path d="M 207.88165950775146,479.75 L 381.6249837875366 479.75" fill="none" stroke="black" stroke-dasharray="none" stroke-width="2" marker-end="url(#arrow)"/><path d="M 381.6249837875366,516.5 L 207.88165950775146 516.5" fill="none" stroke="black" stroke-dasharray="4,4" stroke-width="2" marker-end="url(#arrow)"/><path d="M 207.88165950775146,524.5 L 221.88165950775146 524.5 L 221.88165950775146 549.25 L 207.88165950775146 549.25" fill="none" stroke="black" stroke-dasharray="none" stroke-width="2" marker-end="url(#arrow)"/><path d="M 207.88165950775146,590 L 381.6249837875366 590" fill="none" stroke="black" stroke-dasharray="none" stroke-width="2" marker-end="url(#arrow)"/><path d="M 381.6249837875366,626.75 L 207.88165950775146 626.75" fill="none" stroke="black" stroke-dasharray="4,4" stroke-width="2" marker-end="url(#arrow)"/><path d="M 207.88165950775146,663.5 L 24.831664085388184 663.5" fill="none" stroke="black" stroke-dasharray="4,4" stroke-width="2" marker-end="url(#arrow)"/><path d="M 24.831664085388184,34.75 L 24.831664085388184 683.5" fill="none" stroke="black" stroke-dasharray="none" stroke-width="2"/><path d="M 207.88165950775146,34.75 L 207.88165950775146 683.5" fill="none" stroke="black" stroke-dasharray="none" stroke-width="2"/><path d="M 381.6249837875366,34.75 L 381.6249837875366 683.5" fill="none" stroke="black" stroke-dasharray="none" stroke-width="2"/><g transform="translate(71.01833248138428, 46.75)"><rect width="90.6766586303711" height="24.75" stroke="none" fill="white" stroke-width="0" transform="translate(0, 0)" rx="2"/><text fill="black" font-size="14" font-weight="normal" transform="translate(4, 4)" alignment-baseline="middle" font-family="Arial"><tspan x="0" dy="14" font-family="Arial" font-size="14" font-weight="normal">mistype URL</tspan></text></g><g transform="translate(271.20165729522705, 83.5)"><rect width="47.103328704833984" height="24.75" stroke="none" fill="white" stroke-width="0" transform="translate(0, 0)" rx="2"/><text fill="black" font-size="14" font-weight="normal" transform="translate(4, 4)" alignment-baseline="middle" font-family="Arial"><tspan x="0" dy="14" font-family="Arial" font-size="14" font-weight="normal">GET /</tspan></text></g><g transform="translate(242.37499141693115, 120.25)"><rect width="104.75666046142578" height="24.75" stroke="none" fill="white" stroke-width="0" transform="translate(0, 0)" rx="2"/><text fill="black" font-size="14" font-weight="normal" transform="translate(4, 4)" alignment-baseline="middle" font-family="Arial"><tspan x="0" dy="14" font-family="Arial" font-size="14" font-weight="normal">404 - not found</tspan></text></g><g transform="translate(227.88165950775146, 157)"><rect width="126.52999114990234" height="24.75" stroke="none" fill="white" stroke-width="0" transform="translate(0, 0)" rx="2"/><text fill="black" font-size="14" font-weight="normal" transform="translate(4, 4)" alignment-baseline="middle" font-family="Arial"><tspan x="0" dy="14" font-family="Arial" font-size="14" font-weight="normal">renders error page</tspan></text></g><g transform="translate(51.544997215270996, 193.75)"><rect width="129.62332916259766" height="24.75" stroke="none" fill="white" stroke-width="0" transform="translate(0, 0)" rx="2"/><text fill="black" font-size="14" font-weight="normal" transform="translate(4, 4)" alignment-baseline="middle" font-family="Arial"><tspan x="0" dy="14" font-family="Arial" font-size="14" font-weight="normal">displays error page</tspan></text></g><g transform="translate(48.831664085388184, 230.5)"><rect width="135.04999542236328" height="24.75" stroke="none" fill="white" stroke-width="0" transform="translate(0, 0)" rx="2"/><text fill="black" font-size="14" font-weight="normal" transform="translate(4, 4)" alignment-baseline="middle" font-family="Arial"><tspan x="0" dy="14" font-family="Arial" font-size="14" font-weight="normal">retypes correct URL</tspan></text></g><g transform="translate(271.20165729522705, 267.25)"><rect width="47.103328704833984" height="24.75" stroke="none" fill="white" stroke-width="0" transform="translate(0, 0)" rx="2"/><text fill="black" font-size="14" font-weight="normal" transform="translate(4, 4)" alignment-baseline="middle" font-family="Arial"><tspan x="0" dy="14" font-family="Arial" font-size="14" font-weight="normal">GET /</tspan></text></g><g transform="translate(249.00832653045654, 304)"><rect width="91.489990234375" height="24.75" stroke="none" fill="white" stroke-width="0" transform="translate(0, 0)" rx="2"/><text fill="black" font-size="14" font-weight="normal" transform="translate(4, 4)" alignment-baseline="middle" font-family="Arial"><tspan x="0" dy="14" font-family="Arial" font-size="14" font-weight="normal">200 ok - html</tspan></text></g><g transform="translate(227.88165950775146, 340.75)"><rect width="118.74332427978516" height="24.75" stroke="none" fill="white" stroke-width="0" transform="translate(0, 0)" rx="2"/><text fill="black" font-size="14" font-weight="normal" transform="translate(4, 4)" alignment-baseline="middle" font-family="Arial"><tspan x="0" dy="14" font-family="Arial" font-size="14" font-weight="normal">renders webpage</tspan></text></g><g transform="translate(55.43833065032959, 377.5)"><rect width="121.83666229248047" height="24.75" stroke="none" fill="white" stroke-width="0" transform="translate(0, 0)" rx="2"/><text fill="black" font-size="14" font-weight="normal" transform="translate(4, 4)" alignment-baseline="middle" font-family="Arial"><tspan x="0" dy="14" font-family="Arial" font-size="14" font-weight="normal">displays webpage</tspan></text></g><g transform="translate(53.511664390563965, 414.25)"><rect width="125.68999481201172" height="24.75" stroke="none" fill="white" stroke-width="0" transform="translate(0, 0)" rx="2"/><text fill="black" font-size="14" font-weight="normal" transform="translate(4, 4)" alignment-baseline="middle" font-family="Arial"><tspan x="0" dy="14" font-family="Arial" font-size="14" font-weight="normal">clicks a cat pic link</tspan></text></g><g transform="translate(243.18832302093506, 451)"><rect width="103.12999725341797" height="24.75" stroke="none" fill="white" stroke-width="0" transform="translate(0, 0)" rx="2"/><text fill="black" font-size="14" font-weight="normal" transform="translate(4, 4)" alignment-baseline="middle" font-family="Arial"><tspan x="0" dy="14" font-family="Arial" font-size="14" font-weight="normal">GET /cats.html</tspan></text></g><g transform="translate(249.00832653045654, 487.75)"><rect width="91.489990234375" height="24.75" stroke="none" fill="white" stroke-width="0" transform="translate(0, 0)" rx="2"/><text fill="black" font-size="14" font-weight="normal" transform="translate(4, 4)" alignment-baseline="middle" font-family="Arial"><tspan x="0" dy="14" font-family="Arial" font-size="14" font-weight="normal">200 ok - html</tspan></text></g><g transform="translate(227.88165950775146, 524.5)"><rect width="118.74332427978516" height="24.75" stroke="none" fill="white" stroke-width="0" transform="translate(0, 0)" rx="2"/><text fill="black" font-size="14" font-weight="normal" transform="translate(4, 4)" alignment-baseline="middle" font-family="Arial"><tspan x="0" dy="14" font-family="Arial" font-size="14" font-weight="normal">renders webpage</tspan></text></g><g transform="translate(250.5749921798706, 561.25)"><rect width="88.35665893554688" height="24.75" stroke="none" fill="white" stroke-width="0" transform="translate(0, 0)" rx="2"/><text fill="black" font-size="14" font-weight="normal" transform="translate(4, 4)" alignment-baseline="middle" font-family="Arial"><tspan x="0" dy="14" font-family="Arial" font-size="14" font-weight="normal">GET /cat.jpg</tspan></text></g><g transform="translate(231.88165950775146, 598)"><rect width="125.74332427978516" height="24.75" stroke="none" fill="white" stroke-width="0" transform="translate(0, 0)" rx="2"/><text fill="black" font-size="14" font-weight="normal" transform="translate(4, 4)" alignment-baseline="middle" font-family="Arial"><tspan x="0" dy="14" font-family="Arial" font-size="14" font-weight="normal">200 ok - image/jpg</tspan></text></g><g transform="translate(51.55166530609131, 634.75)"><rect width="129.60999298095703" height="24.75" stroke="none" fill="white" stroke-width="0" transform="translate(0, 0)" rx="2"/><text fill="black" font-size="14" font-weight="normal" transform="translate(4, 4)" alignment-baseline="middle" font-family="Arial"><tspan x="0" dy="14" font-family="Arial" font-size="14" font-weight="normal">displays cat picture</tspan></text></g></svg>