<svg xmlns="http://www.w3.org/2000/svg" id="mainsvg" width="616.6489718437196" height="895.1250000000001" viewBox="-10 -10 560.5899744033813 813.75"><defs><marker id="arrow" viewBox="0 0 10 10" refX="10" refY="5" markerWidth="5" markerHeight="5" orient="auto-start-reverse" fill="black"><path d="M 0 0 L 10 5 L 0 10 z"/></marker><filter id="shadowOLD" x="-50%" y="-50%" width="250%" height="250%"><feDropShadow flood-color="black" flood-opacity="0.3" dx="1" dy="1" stdDeviation="2"> </feDropShadow></filter><filter id="shadow-path" filterUnits="userSpaceOnUse" x="-10" y="-10" width="560.5899744033813px" height="813.75px"><feDropShadow flood-color="black" flood-opacity="0.1" dx="1" dy="1" stdDeviation="1"> </feDropShadow></filter><filter id="shadow" filterUnits="userSpaceOnUse" x="-10" y="-10" width="660.5899744033813px" height="913.75px"><feDropShadow flood-color="black" flood-opacity="0.1" dx="1" dy="1" stdDeviation="1"> </feDropShadow></filter></defs><rect x="-10" y="-10" width="560.5899744033813" height="813.75" fill="#fff"/><g transform="translate(0, 0)"><rect width="49.66332817077637" height="34.75" stroke="black" fill="white" stroke-width="2" transform="translate(0, 0)" rx="3"/><text fill="black" font-size="16" font-weight="normal" transform="translate(8, 8)" alignment-baseline="middle" font-family="Arial"><tspan x="0" dy="16" font-family="Arial" font-size="16" font-weight="normal">user</tspan></text></g><g transform="translate(305.1099863052368, 0)"><rect width="55.88999557495117" height="34.75" stroke="black" fill="white" stroke-width="2" transform="translate(0, 0)" rx="3"/><text fill="black" font-size="16" font-weight="normal" transform="translate(8, 8)" alignment-baseline="middle" font-family="Arial"><tspan x="0" dy="16" font-family="Arial" font-size="16" font-weight="normal">client</tspan></text></g><g transform="translate(477.59331226348877, 0)"><rect width="62.99666213989258" height="34.75" stroke="black" fill="white" stroke-width="2" transform="translate(0, 0)" rx="3"/><text fill="black" font-size="16" font-weight="normal" transform="translate(8, 8)" alignment-baseline="middle" font-family="Arial"><tspan x="0" dy="16" font-family="Arial" font-size="16" font-weight="normal">server</tspan></text></g><path d="M 24.831664085388184,75.5 L 333.0549840927124 75.5" fill="none" stroke="black" stroke-dasharray="none" stroke-width="2" marker-end="url(#arrow)"/><path d="M 333.0549840927124,112.25 L 509.09164333343506 112.25" fill="none" stroke="black" stroke-dasharray="none" stroke-width="2" marker-end="url(#arrow)"/><path d="M 509.09164333343506,149 L 333.0549840927124 149" fill="none" stroke="black" stroke-dasharray="4,4" stroke-width="2" marker-end="url(#arrow)"/><path d="M 333.0549840927124,157 L 347.0549840927124 157 L 347.0549840927124 181.75 L 333.0549840927124 181.75" fill="none" stroke="black" stroke-dasharray="none" stroke-width="2" marker-end="url(#arrow)"/><path d="M 333.0549840927124,222.5 L 24.831664085388184 222.5" fill="none" stroke="black" stroke-dasharray="4,4" stroke-width="2" marker-end="url(#arrow)"/><path d="M 24.831664085388184,259.25 L 333.0549840927124 259.25" fill="none" stroke="black" stroke-dasharray="none" stroke-width="2" marker-end="url(#arrow)"/><path d="M 333.0549840927124,296 L 509.09164333343506 296" fill="none" stroke="black" stroke-dasharray="none" stroke-width="2" marker-end="url(#arrow)"/><path d="M 509.09164333343506,332.75 L 333.0549840927124 332.75" fill="none" stroke="black" stroke-dasharray="4,4" stroke-width="2" marker-end="url(#arrow)"/><path d="M 333.0549840927124,340.75 L 347.0549840927124 340.75 L 347.0549840927124 365.5 L 333.0549840927124 365.5" fill="none" stroke="black" stroke-dasharray="none" stroke-width="2" marker-end="url(#arrow)"/><path d="M 333.0549840927124,406.25 L 24.831664085388184 406.25" fill="none" stroke="black" stroke-dasharray="4,4" stroke-width="2" marker-end="url(#arrow)"/><path d="M 24.831664085388184,443 L 333.0549840927124 443" fill="none" stroke="black" stroke-dasharray="none" stroke-width="2" marker-end="url(#arrow)"/><path d="M 333.0549840927124,479.75 L 509.09164333343506 479.75" fill="none" stroke="black" stroke-dasharray="none" stroke-width="2" marker-end="url(#arrow)"/><path d="M 509.09164333343506,516.5 L 333.0549840927124 516.5" fill="none" stroke="black" stroke-dasharray="4,4" stroke-width="2" marker-end="url(#arrow)"/><path d="M 333.0549840927124,524.5 L 347.0549840927124 524.5 L 347.0549840927124 549.25 L 333.0549840927124 549.25" fill="none" stroke="black" stroke-dasharray="none" stroke-width="2" marker-end="url(#arrow)"/><path d="M 333.0549840927124,590 L 24.831664085388184 590" fill="none" stroke="black" stroke-dasharray="4,4" stroke-width="2" marker-end="url(#arrow)"/><path d="M 24.831664085388184,626.75 L 333.0549840927124 626.75" fill="none" stroke="black" stroke-dasharray="none" stroke-width="2" marker-end="url(#arrow)"/><path d="M 333.0549840927124,663.5 L 509.09164333343506 663.5" fill="none" stroke="black" stroke-dasharray="none" stroke-width="2" marker-end="url(#arrow)"/><path d="M 509.09164333343506,700.25 L 333.0549840927124 700.25" fill="none" stroke="black" stroke-dasharray="4,4" stroke-width="2" marker-end="url(#arrow)"/><path d="M 333.0549840927124,708.25 L 347.0549840927124 708.25 L 347.0549840927124 733 L 333.0549840927124 733" fill="none" stroke="black" stroke-dasharray="none" stroke-width="2" marker-end="url(#arrow)"/><path d="M 333.0549840927124,773.75 L 24.831664085388184 773.75" fill="none" stroke="black" stroke-dasharray="4,4" stroke-width="2" marker-end="url(#arrow)"/><path d="M 24.831664085388184,34.75 L 24.831664085388184 793.75" fill="none" stroke="black" stroke-dasharray="none" stroke-width="2"/><path d="M 333.0549840927124,34.75 L 333.0549840927124 793.75" fill="none" stroke="black" stroke-dasharray="none" stroke-width="2"/><path d="M 509.09164333343506,34.75 L 509.09164333343506 793.75" fill="none" stroke="black" stroke-dasharray="none" stroke-width="2"/><g transform="translate(133.60499477386475, 46.75)"><rect width="90.6766586303711" height="24.75" stroke="none" fill="white" stroke-width="0" transform="translate(0, 0)" rx="2"/><text fill="black" font-size="14" font-weight="normal" transform="translate(4, 4)" alignment-baseline="middle" font-family="Arial"><tspan x="0" dy="14" font-family="Arial" font-size="14" font-weight="normal">mistype URL</tspan></text></g><g transform="translate(397.52164936065674, 83.5)"><rect width="47.103328704833984" height="24.75" stroke="none" fill="white" stroke-width="0" transform="translate(0, 0)" rx="2"/><text fill="black" font-size="14" font-weight="normal" transform="translate(4, 4)" alignment-baseline="middle" font-family="Arial"><tspan x="0" dy="14" font-family="Arial" font-size="14" font-weight="normal">GET /</tspan></text></g><g transform="translate(368.69498348236084, 120.25)"><rect width="104.75666046142578" height="24.75" stroke="none" fill="white" stroke-width="0" transform="translate(0, 0)" rx="2"/><text fill="black" font-size="14" font-weight="normal" transform="translate(4, 4)" alignment-baseline="middle" font-family="Arial"><tspan x="0" dy="14" font-family="Arial" font-size="14" font-weight="normal">404 - not found</tspan></text></g><g transform="translate(353.0549840927124, 157)"><rect width="126.52999114990234" height="24.75" stroke="none" fill="white" stroke-width="0" transform="translate(0, 0)" rx="2"/><text fill="black" font-size="14" font-weight="normal" transform="translate(4, 4)" alignment-baseline="middle" font-family="Arial"><tspan x="0" dy="14" font-family="Arial" font-size="14" font-weight="normal">renders error page</tspan></text></g><g transform="translate(114.13165950775146, 193.75)"><rect width="129.62332916259766" height="24.75" stroke="none" fill="white" stroke-width="0" transform="translate(0, 0)" rx="2"/><text fill="black" font-size="14" font-weight="normal" transform="translate(4, 4)" alignment-baseline="middle" font-family="Arial"><tspan x="0" dy="14" font-family="Arial" font-size="14" font-weight="normal">displays error page</tspan></text></g><g transform="translate(111.41832637786865, 230.5)"><rect width="135.04999542236328" height="24.75" stroke="none" fill="white" stroke-width="0" transform="translate(0, 0)" rx="2"/><text fill="black" font-size="14" font-weight="normal" transform="translate(4, 4)" alignment-baseline="middle" font-family="Arial"><tspan x="0" dy="14" font-family="Arial" font-size="14" font-weight="normal">retypes correct URL</tspan></text></g><g transform="translate(397.52164936065674, 267.25)"><rect width="47.103328704833984" height="24.75" stroke="none" fill="white" stroke-width="0" transform="translate(0, 0)" rx="2"/><text fill="black" font-size="14" font-weight="normal" transform="translate(4, 4)" alignment-baseline="middle" font-family="Arial"><tspan x="0" dy="14" font-family="Arial" font-size="14" font-weight="normal">GET /</tspan></text></g><g transform="translate(375.32831859588623, 304)"><rect width="91.489990234375" height="24.75" stroke="none" fill="white" stroke-width="0" transform="translate(0, 0)" rx="2"/><text fill="black" font-size="14" font-weight="normal" transform="translate(4, 4)" alignment-baseline="middle" font-family="Arial"><tspan x="0" dy="14" font-family="Arial" font-size="14" font-weight="normal">200 ok - html</tspan></text></g><g transform="translate(353.0549840927124, 340.75)"><rect width="118.74332427978516" height="24.75" stroke="none" fill="white" stroke-width="0" transform="translate(0, 0)" rx="2"/><text fill="black" font-size="14" font-weight="normal" transform="translate(4, 4)" alignment-baseline="middle" font-family="Arial"><tspan x="0" dy="14" font-family="Arial" font-size="14" font-weight="normal">renders webpage</tspan></text></g><g transform="translate(118.02499294281006, 377.5)"><rect width="121.83666229248047" height="24.75" stroke="none" fill="white" stroke-width="0" transform="translate(0, 0)" rx="2"/><text fill="black" font-size="14" font-weight="normal" transform="translate(4, 4)" alignment-baseline="middle" font-family="Arial"><tspan x="0" dy="14" font-family="Arial" font-size="14" font-weight="normal">displays webpage</tspan></text></g><g transform="translate(125.1116590499878, 414.25)"><rect width="107.663330078125" height="24.75" stroke="none" fill="white" stroke-width="0" transform="translate(0, 0)" rx="2"/><text fill="black" font-size="14" font-weight="normal" transform="translate(4, 4)" alignment-baseline="middle" font-family="Arial"><tspan x="0" dy="14" font-family="Arial" font-size="14" font-weight="normal">clicks 'a list' link</tspan></text></g><g transform="translate(373.79498195648193, 451)"><rect width="94.5566635131836" height="24.75" stroke="none" fill="white" stroke-width="0" transform="translate(0, 0)" rx="2"/><text fill="black" font-size="14" font-weight="normal" transform="translate(4, 4)" alignment-baseline="middle" font-family="Arial"><tspan x="0" dy="14" font-family="Arial" font-size="14" font-weight="normal">GET /list.html</tspan></text></g><g transform="translate(362.09498500823975, 487.75)"><rect width="117.95665740966797" height="24.75" stroke="none" fill="white" stroke-width="0" transform="translate(0, 0)" rx="2"/><text fill="black" font-size="14" font-weight="normal" transform="translate(4, 4)" alignment-baseline="middle" font-family="Arial"><tspan x="0" dy="14" font-family="Arial" font-size="14" font-weight="normal">200 ok - text/html</tspan></text></g><g transform="translate(353.0549840927124, 524.5)"><rect width="118.74332427978516" height="24.75" stroke="none" fill="white" stroke-width="0" transform="translate(0, 0)" rx="2"/><text fill="black" font-size="14" font-weight="normal" transform="translate(4, 4)" alignment-baseline="middle" font-family="Arial"><tspan x="0" dy="14" font-family="Arial" font-size="14" font-weight="normal">renders webpage</tspan></text></g><g transform="translate(118.02499294281006, 561.25)"><rect width="121.83666229248047" height="24.75" stroke="none" fill="white" stroke-width="0" transform="translate(0, 0)" rx="2"/><text fill="black" font-size="14" font-weight="normal" transform="translate(4, 4)" alignment-baseline="middle" font-family="Arial"><tspan x="0" dy="14" font-family="Arial" font-size="14" font-weight="normal">displays webpage</tspan></text></g><g transform="translate(48.831664085388184, 598)"><rect width="260.2233200073242" height="24.75" stroke="none" fill="white" stroke-width="0" transform="translate(0, 0)" rx="2"/><text fill="black" font-size="14" font-weight="normal" transform="translate(4, 4)" alignment-baseline="middle" font-family="Arial"><tspan x="0" dy="14" font-family="Arial" font-size="14" font-weight="normal">Enters email address and clicks 'Submit'</tspan></text></g><g transform="translate(357.0549840927124, 634.75)"><rect width="128.03665924072266" height="24.75" stroke="none" fill="white" stroke-width="0" transform="translate(0, 0)" rx="2"/><text fill="black" font-size="14" font-weight="normal" transform="translate(4, 4)" alignment-baseline="middle" font-family="Arial"><tspan x="0" dy="14" font-family="Arial" font-size="14" font-weight="normal">POST /thanks.html</tspan></text></g><g transform="translate(375.32831859588623, 671.5)"><rect width="91.489990234375" height="24.75" stroke="none" fill="white" stroke-width="0" transform="translate(0, 0)" rx="2"/><text fill="black" font-size="14" font-weight="normal" transform="translate(4, 4)" alignment-baseline="middle" font-family="Arial"><tspan x="0" dy="14" font-family="Arial" font-size="14" font-weight="normal">200 ok - html</tspan></text></g><g transform="translate(353.0549840927124, 708.25)"><rect width="118.74332427978516" height="24.75" stroke="none" fill="white" stroke-width="0" transform="translate(0, 0)" rx="2"/><text fill="black" font-size="14" font-weight="normal" transform="translate(4, 4)" alignment-baseline="middle" font-family="Arial"><tspan x="0" dy="14" font-family="Arial" font-size="14" font-weight="normal">renders webpage</tspan></text></g><g transform="translate(118.02499294281006, 745)"><rect width="121.83666229248047" height="24.75" stroke="none" fill="white" stroke-width="0" transform="translate(0, 0)" rx="2"/><text fill="black" font-size="14" font-weight="normal" transform="translate(4, 4)" alignment-baseline="middle" font-family="Arial"><tspan x="0" dy="14" font-family="Arial" font-size="14" font-weight="normal">displays webpage</tspan></text></g></svg>